<svg width="70" height="57" viewBox="0 0 70 57" fill="none" xmlns="http://www.w3.org/2000/svg">
<g opacity="0.7">
<path d="M46.4919 0.158827C40.8877 1.62336 37.5251 8.62333 39.8887 13.8857C42.8857 20.5382 51.9012 19.6694 55.2638 12.4212C55.9704 10.8822 56.0435 10.5347 56.0435 8.25099C56.0435 6.04178 55.9704 5.6198 55.3612 4.35384C54.6059 2.81484 53.3145 1.47442 51.7307 0.655277C50.5855 0.059536 47.8808 -0.18869 46.4919 0.158827ZM50.3174 4.45313C51.5845 5.34675 52.0962 6.21554 52.218 7.70489C52.6566 13.2403 46.029 16.8893 43.568 12.446C41.2288 8.25099 46.5894 1.89641 50.3174 4.45313Z" fill="#F6A6BF"/>
<path d="M18.7142 0.581415C17.2278 1.12751 15.376 2.93956 14.5719 4.60268C13.9627 5.86863 13.8896 6.29061 13.8896 8.49982C13.8896 10.7835 13.9627 11.131 14.6694 12.67C16.2532 16.0955 19.3233 18.3296 22.7102 18.5033C25.0007 18.6274 26.5357 18.1062 28.1195 16.6665C31.8719 13.2409 31.7014 7.01047 27.754 2.98921C25.9266 1.12751 24.1722 0.333189 21.6868 0.25872C20.3954 0.209076 19.3964 0.333189 18.7142 0.581415ZM23.4656 4.6275C25.4392 5.67005 26.6819 7.63103 26.8769 9.98918C27.3154 15.6239 20.5904 16.2941 18.1781 10.858C17.2035 8.64876 17.7151 5.89345 19.3477 4.75161C20.4442 4.00693 22.1742 3.95729 23.4656 4.6275Z" fill="#F6A6BF"/>
<path d="M60.1859 16.8895C56.9939 17.7334 54.7035 19.5703 53.3146 22.4746C52.4374 24.237 52.3887 24.51 52.3887 26.5951C52.3887 28.4568 52.4861 29.0526 52.9491 29.9958C53.6801 31.51 54.9228 32.8008 56.4822 33.6447C57.603 34.2405 58.0173 34.3149 60.0884 34.3149C62.2814 34.3149 62.5007 34.2653 64.2307 33.3965C71.1263 29.9213 72.0522 20.6873 65.8632 17.5845C64.0601 16.6661 61.989 16.4179 60.1859 16.8895ZM64.4256 21.2334C66.0094 22.4249 66.4724 24.1377 65.7901 26.2228C64.7667 29.4001 60.7707 31.3859 58.1147 30.0206C55.5075 28.705 55.4832 25.0065 58.0904 22.4249C59.8691 20.6625 62.9149 20.0916 64.4256 21.2334Z" fill="#F6A6BF"/>
<path d="M5.09254 17.8068C3.19198 18.4274 1.5838 19.8423 0.682254 21.7288C0.0974649 22.9451 0 23.4415 0 25.2784C0 27.2146 0.0730987 27.5373 0.925917 29.2748C4.33719 36.3245 13.572 37.2181 16.8858 30.8387C17.4706 29.7465 17.5437 29.3245 17.5437 27.2394C17.5193 25.1791 17.4462 24.7075 16.8371 23.4664C15.4482 20.5373 12.6217 18.204 9.67339 17.5834C7.89466 17.2111 6.82254 17.2607 5.09254 17.8068ZM10.2582 21.9274C13.0603 23.2926 14.5466 26.8422 13.3283 29.2252C12.7679 30.2926 11.111 31.211 9.74649 31.211C6.82254 31.211 3.77677 28.0337 3.77677 25.0302C3.77677 23.6649 4.84888 22.1259 6.21339 21.555C7.04184 21.1827 9.13734 21.3813 10.2582 21.9274Z" fill="#F6A6BF"/>
<path d="M31.5788 23.4177C28.3625 24.2865 25.1949 26.9922 23.7085 30.1943C22.8557 31.9815 22.807 32.0312 21.0526 32.8999C19.7612 33.5205 18.7865 34.2404 17.6657 35.407C10.8431 42.4815 14.0595 54.1481 23.5136 56.6552C26.7543 57.524 30.9697 56.7048 33.723 54.719L34.9657 53.8006L36.2084 54.719C38.913 56.7048 42.9091 57.4743 46.2716 56.68C51.949 55.3147 55.9207 50.1516 55.9207 44.1694C55.9207 39.5276 53.0211 34.9106 48.8545 32.8751C47.0514 31.9815 47.027 31.9567 46.1985 30.1695C44.7122 26.8929 41.3253 24.0879 37.8897 23.2936C36.3302 22.9213 33.1382 22.9957 31.5788 23.4177ZM37.9871 27.5134C40.3994 28.4071 42.568 30.8645 43.2746 33.446C43.6888 34.9354 44.0787 35.3822 45.4432 35.7794C47.295 36.3503 48.4159 37.0453 49.6586 38.3857C51.4129 40.2971 51.9002 41.5382 51.9002 44.2439C51.9002 46.1304 51.8028 46.6765 51.2667 47.868C50.3652 49.8289 49.0738 51.1694 47.1976 52.1126C45.7356 52.8573 45.3701 52.9318 43.3721 52.9318C41.4715 52.9318 41.0085 52.8325 39.8146 52.2616C39.0592 51.8644 37.8409 50.946 37.0856 50.2013C35.2581 48.3644 34.6977 48.3644 32.8215 50.2013C32.0661 50.9708 30.8235 51.8892 30.0925 52.2616C28.9229 52.8325 28.4599 52.9318 26.5594 52.9318C24.7075 52.9318 24.1471 52.8325 23.0019 52.2864C21.077 51.3679 19.7612 50.0524 18.8353 48.141C18.1043 46.6268 18.0312 46.2793 18.0312 44.2439C18.0556 41.5382 18.5429 40.2723 20.2729 38.3857C21.5156 37.0453 22.6364 36.3503 24.4882 35.7794C25.8527 35.3822 26.2426 34.9354 26.6568 33.446C27.3635 30.8893 29.532 28.4319 31.8712 27.5134C33.6012 26.8432 36.2328 26.8184 37.9871 27.5134Z" fill="#F6A6BF"/>
</g>
</svg>
